<?xml version="1.0" encoding="UTF-8"?>
<svg width="450px" height="450px" viewBox="0 0 450 450" version="1.1" xmlns="http://www.w3.org/2000/svg" xmlns:xlink="http://www.w3.org/1999/xlink">
    <!-- Generator: Sketch 51.3 (57544) - http://www.bohemiancoding.com/sketch -->
    <title>Icon Design</title>
    <desc>Created with Sketch.</desc>
    <defs></defs>
    <g id="Icon-Design" stroke="none" stroke-width="1" fill="none" fill-rule="evenodd">
        <rect fill="#FFFFFF" x="0" y="0" width="450" height="450"></rect>
        <g id="Group" transform="translate(55.000000, 40.000000)" fill-rule="nonzero">
            <rect id="Rectangle" fill="#FFF3E6" x="72" y="178" width="150" height="150"></rect>
            <rect id="Rectangle" fill="#2EC4B6" x="177" y="208" width="120" height="120"></rect>
            <rect id="Rectangle" fill="#D3DDF7" x="195" y="43" width="105" height="105"></rect>
            <polygon id="Triangle" fill="#3731AA" points="147 28 222 178 72 178"></polygon>
            <circle id="Oval-2" fill="#E83683" cx="78" cy="253" r="75"></circle>
            <polygon id="Path-5" fill="#CCFF66" points="110 43 43 173 43 43"></polygon>
            <g id="corner" fill="#3731AA">
                <rect id="Rectangle-2" x="0" y="0" width="15" height="105"></rect>
                <rect id="Rectangle-2" transform="translate(52.500000, 7.500000) rotate(-90.000000) translate(-52.500000, -7.500000) " x="45" y="-45" width="15" height="105"></rect>
            </g>
            <g id="corner" transform="translate(287.500000, 52.500000) scale(-1, 1) translate(-287.500000, -52.500000) translate(235.000000, 0.000000)" fill="#3731AA">
                <rect id="Rectangle-2" x="0" y="0" width="15" height="105"></rect>
                <rect id="Rectangle-2" transform="translate(52.500000, 7.500000) rotate(-90.000000) translate(-52.500000, -7.500000) " x="45" y="-45" width="15" height="105"></rect>
            </g>
            <g id="corner" transform="translate(287.500000, 318.500000) scale(-1, -1) translate(-287.500000, -318.500000) translate(235.000000, 266.000000)" fill="#3731AA">
                <rect id="Rectangle-2" x="0" y="0" width="15" height="105"></rect>
                <rect id="Rectangle-2" transform="translate(52.500000, 7.500000) rotate(-90.000000) translate(-52.500000, -7.500000) " x="45" y="-45" width="15" height="105"></rect>
            </g>
        </g>
    </g>
</svg>