<?xml version="1.0" encoding="UTF-8"?>
<svg width="1275px" height="450px" viewBox="0 0 1275 450" version="1.1" xmlns="http://www.w3.org/2000/svg" xmlns:xlink="http://www.w3.org/1999/xlink">
    <!-- Generator: Sketch 51.3 (57544) - http://www.bohemiancoding.com/sketch -->
    <title>Logo Full Mock</title>
    <desc>Created with Sketch.</desc>
    <defs></defs>
    <g id="Logo-Full-Mock" stroke="none" stroke-width="1" fill="none" fill-rule="evenodd">
        <rect fill="#FFFFFF" x="0" y="0" width="1275" height="450"></rect>
        <g id="Group" transform="translate(112.000000, 101.000000)" fill-rule="nonzero">
            <rect id="Rectangle" fill="#FFF3E6" x="48" y="119" width="100" height="100"></rect>
            <rect id="Rectangle" fill="#2EC4B6" x="118" y="139" width="80" height="80"></rect>
            <rect id="Rectangle" fill="#D3DDF7" x="130" y="29" width="70" height="70"></rect>
            <polygon id="Triangle" fill="#3731AA" points="98 19 148 119 48 119"></polygon>
            <circle id="Oval-2" fill="#E83683" cx="52" cy="169" r="50"></circle>
            <polygon id="Path-5" fill="#CCFF66" points="74 29 29 116 29 29"></polygon>
            <g id="corner" fill="#3731AA">
                <rect id="Rectangle-2" x="0" y="0" width="10" height="70"></rect>
                <rect id="Rectangle-2" transform="translate(35.000000, 5.000000) rotate(-90.000000) translate(-35.000000, -5.000000) " x="30" y="-30" width="10" height="70"></rect>
            </g>
            <g id="corner" transform="translate(192.000000, 35.000000) scale(-1, 1) translate(-192.000000, -35.000000) translate(157.000000, 0.000000)" fill="#3731AA">
                <rect id="Rectangle-2" x="0" y="0" width="10" height="70"></rect>
                <rect id="Rectangle-2" transform="translate(35.000000, 5.000000) rotate(-90.000000) translate(-35.000000, -5.000000) " x="30" y="-30" width="10" height="70"></rect>
            </g>
            <g id="corner" transform="translate(192.000000, 213.000000) scale(-1, -1) translate(-192.000000, -213.000000) translate(157.000000, 178.000000)" fill="#3731AA">
                <rect id="Rectangle-2" x="0" y="0" width="10" height="70"></rect>
                <rect id="Rectangle-2" transform="translate(35.000000, 5.000000) rotate(-90.000000) translate(-35.000000, -5.000000) " x="30" y="-30" width="10" height="70"></rect>
            </g>
        </g>
        <path d="M433.63,181.748 C433.63,178.183982 434.157995,175.005014 435.214,172.211 C436.270005,169.416986 437.721991,167.05201 439.57,165.116 C441.418009,163.17999 443.595987,161.706005 446.104,160.694 C448.612013,159.681995 451.295986,159.176 454.156,159.176 C456.928014,159.176 459.380989,159.736994 461.515,160.859 C463.649011,161.981006 465.441993,163.245993 466.894,164.654 L461.548,170.66 C460.535995,169.735995 459.436006,168.988003 458.248,168.416 C457.059994,167.843997 455.696008,167.558 454.156,167.558 C452.615992,167.558 451.208006,167.876997 449.932,168.515 C448.655994,169.153003 447.545005,170.065994 446.599,171.254 C445.652995,172.442006 444.916003,173.893991 444.388,175.61 C443.859997,177.326009 443.596,179.261989 443.596,181.418 C443.596,185.862022 444.60799,189.304988 446.632,191.747 C448.65601,194.189012 451.295984,195.41 454.552,195.41 C456.092008,195.41 457.488994,195.058004 458.743,194.354 C459.997006,193.649996 461.151995,192.726006 462.208,191.582 L467.554,197.456 C463.945982,201.680021 459.414027,203.792 453.958,203.792 C451.185986,203.792 448.568012,203.319005 446.104,202.373 C443.639988,201.426995 441.484009,200.030009 439.636,198.182 C437.787991,196.333991 436.325005,194.035014 435.247,191.285 C434.168995,188.534986 433.63,185.356018 433.63,181.748 Z M474.119141,156.734 L493.325141,156.734 L493.325141,190.592 C493.325141,191.604005 493.46814,192.450997 493.754141,193.133 C494.040142,193.815003 494.436138,194.364998 494.942141,194.783 C495.448144,195.201002 496.020138,195.497999 496.658141,195.674 C497.296144,195.850001 497.945138,195.938 498.605141,195.938 C499.353145,195.938 500.145137,195.861001 500.981141,195.707 C501.817145,195.552999 502.741136,195.278002 503.753141,194.882 L505.931141,202.01 C505.051137,202.274001 504.237145,202.515999 503.489141,202.736 C502.741137,202.956001 501.993145,203.142999 501.245141,203.297 C500.497137,203.451001 499.705145,203.572 498.869141,203.66 C498.033137,203.748 497.109146,203.792 496.097141,203.792 C491.96112,203.792 488.848151,202.571012 486.758141,200.129 C484.668131,197.686988 483.623141,194.376021 483.623141,190.196 L483.623141,164.39 L474.119141,164.39 L474.119141,156.734 Z M513.156282,186.632 C513.156282,183.903986 513.618277,181.473011 514.542282,179.339 C515.466287,177.204989 516.709274,175.412007 518.271282,173.96 C519.83329,172.507993 521.615272,171.397004 523.617282,170.627 C525.619292,169.856996 527.698271,169.472 529.854282,169.472 C532.010293,169.472 534.089272,169.856996 536.091282,170.627 C538.093292,171.397004 539.875274,172.507993 541.437282,173.96 C542.99929,175.412007 544.242277,177.204989 545.166282,179.339 C546.090287,181.473011 546.552282,183.903986 546.552282,186.632 C546.552282,189.360014 546.090287,191.790989 545.166282,193.925 C544.242277,196.059011 542.99929,197.851993 541.437282,199.304 C539.875274,200.756007 538.093292,201.866996 536.091282,202.637 C534.089272,203.407004 532.010293,203.792 529.854282,203.792 C527.698271,203.792 525.619292,203.407004 523.617282,202.637 C521.615272,201.866996 519.83329,200.756007 518.271282,199.304 C516.709274,197.851993 515.466287,196.059011 514.542282,193.925 C513.618277,191.790989 513.156282,189.360014 513.156282,186.632 Z M523.122282,186.632 C523.122282,189.492014 523.683276,191.757992 524.805282,193.43 C525.927288,195.102008 527.610271,195.938 529.854282,195.938 C532.098293,195.938 533.781276,195.102008 534.903282,193.43 C536.025288,191.757992 536.586282,189.492014 536.586282,186.632 C536.586282,183.771986 536.025288,181.506008 534.903282,179.834 C533.781276,178.161992 532.098293,177.326 529.854282,177.326 C527.610271,177.326 525.927288,178.161992 524.805282,179.834 C523.683276,181.506008 523.122282,183.771986 523.122282,186.632 Z M584.731423,203 L576.811423,203 L576.085423,198.314 L575.821423,198.314 C574.369416,199.986008 572.763432,201.316995 571.003423,202.307 C569.243414,203.297005 567.175435,203.792 564.799423,203.792 C561.059404,203.792 558.353431,202.604012 556.681423,200.228 C555.009415,197.851988 554.173423,194.596021 554.173423,190.46 L554.173423,170.264 L563.875423,170.264 L563.875423,189.206 C563.875423,191.406011 564.20542,193.011995 564.865423,194.024 C565.525426,195.036005 566.779414,195.542 568.627423,195.542 C569.859429,195.542 570.948418,195.278003 571.894423,194.75 C572.840428,194.221997 573.885417,193.232007 575.029423,191.78 L575.029423,170.264 L584.731423,170.264 L584.731423,203 Z M593.210564,186.632 C593.210564,183.947987 593.60656,181.550011 594.398564,179.438 C595.190568,177.325989 596.235558,175.533007 597.533564,174.059 C598.83157,172.584993 600.316556,171.452004 601.988564,170.66 C603.660572,169.867996 605.398555,169.472 607.202564,169.472 C609.094573,169.472 610.678558,169.790997 611.954564,170.429 C613.23057,171.067003 614.440558,171.913995 615.584564,172.97 L615.254564,167.888 L615.254564,156.734 L624.956564,156.734 L624.956564,203 L617.036564,203 L616.310564,199.634 L616.112564,199.634 C614.880558,200.822006 613.472572,201.811996 611.888564,202.604 C610.304556,203.396004 608.676572,203.792 607.004564,203.792 C604.936554,203.792 603.055572,203.396004 601.361564,202.604 C599.667556,201.811996 598.21557,200.679007 597.005564,199.205 C595.795558,197.730993 594.860567,195.938011 594.200564,193.826 C593.540561,191.713989 593.210564,189.316013 593.210564,186.632 Z M603.176564,186.5 C603.176564,189.756016 603.726559,192.131993 604.826564,193.628 C605.92657,195.124007 607.488554,195.872 609.512564,195.872 C610.61257,195.872 611.624559,195.641002 612.548564,195.179 C613.472569,194.716998 614.37456,193.936006 615.254564,192.836 L615.254564,179.57 C614.37456,178.777996 613.483569,178.217002 612.581564,177.887 C611.679559,177.556998 610.744569,177.392 609.776564,177.392 C607.972555,177.392 606.42157,178.139993 605.123564,179.636 C603.825558,181.132007 603.176564,183.419985 603.176564,186.5 Z M674.518846,159.968 L684.418846,159.968 L693.526846,181.418 L697.222846,190.856 L697.486846,190.856 C697.266845,188.567989 696.980848,186.016014 696.628846,183.2 C696.276844,180.383986 696.100846,177.722013 696.100846,175.214 L696.100846,159.968 L705.406846,159.968 L705.406846,203 L695.506846,203 L686.398846,181.55 L682.702846,172.178 L682.438846,172.178 C682.658847,174.554012 682.944844,177.105986 683.296846,179.834 C683.648848,182.562014 683.824846,185.201987 683.824846,187.754 L683.824846,203 L674.518846,203 L674.518846,159.968 Z M714.215987,193.892 C714.215987,192.043991 714.611983,190.427007 715.403987,189.041 C716.195991,187.654993 717.460978,186.478005 719.198987,185.51 C720.936996,184.541995 723.169973,183.761003 725.897987,183.167 C728.626001,182.572997 731.925968,182.166001 735.797987,181.946 C735.621986,180.449993 734.972993,179.284004 733.850987,178.448 C732.728981,177.611996 731.045998,177.194 728.801987,177.194 C727.217979,177.194 725.622995,177.468997 724.016987,178.019 C722.410979,178.569003 720.683996,179.305995 718.835987,180.23 L715.403987,173.894 C717.647998,172.617994 720.056974,171.562004 722.630987,170.726 C725.205,169.889996 727.899973,169.472 730.715987,169.472 C735.29201,169.472 738.899974,170.681988 741.539987,173.102 C744.18,175.522012 745.499987,179.239975 745.499987,184.256 L745.499987,203 L737.579987,203 L736.853987,199.304 L736.589987,199.304 C734.917979,200.580006 733.091997,201.646996 731.111987,202.505 C729.131977,203.363004 727.085998,203.792 724.973987,203.792 C723.301979,203.792 721.805994,203.539003 720.485987,203.033 C719.16598,202.526997 718.043992,201.823005 717.119987,200.921 C716.195982,200.018995 715.48099,198.974006 714.974987,197.786 C714.468984,196.597994 714.215987,195.300007 714.215987,193.892 Z M723.521987,193.166 C723.521987,194.222005 723.928983,195.002997 724.742987,195.509 C725.556991,196.015003 726.66798,196.268 728.075987,196.268 C729.527994,196.268 730.891981,195.971003 732.167987,195.377 C733.443993,194.782997 734.653981,194.046004 735.797987,193.166 L735.797987,187.754 C733.377975,187.886001 731.375995,188.105998 729.791987,188.414 C728.207979,188.722002 726.953992,189.106998 726.029987,189.569 C725.105982,190.031002 724.456989,190.569997 724.082987,191.186 C723.708985,191.802003 723.521987,192.461996 723.521987,193.166 Z M761.701128,177.854 L753.451128,177.854 L753.451128,170.66 L762.163128,170.264 L763.417128,161.552 L771.403128,161.552 L771.403128,170.264 L785.263128,170.264 L785.263128,177.854 L771.403128,177.854 L771.403128,189.338 C771.403128,191.846013 771.953123,193.616995 773.053128,194.651 C774.153133,195.685005 775.891116,196.202 778.267128,196.202 C779.543134,196.202 780.709123,196.092001 781.765128,195.872 C782.821133,195.651999 783.833123,195.366002 784.801128,195.014 L786.517128,202.01 C785.065121,202.450002 783.448137,202.856998 781.666128,203.231 C779.884119,203.605002 777.937139,203.792 775.825128,203.792 C773.229115,203.792 771.029137,203.440004 769.225128,202.736 C767.421119,202.031996 765.958134,201.053006 764.836128,199.799 C763.714122,198.544994 762.91113,197.038009 762.427128,195.278 C761.943126,193.517991 761.701128,191.560011 761.701128,189.404 L761.701128,177.854 Z M795.458269,170.264 L818.294269,170.264 L818.294269,203 L808.592269,203 L808.592269,177.854 L795.458269,177.854 L795.458269,170.264 Z M813.014269,165.446 C811.12226,165.446 809.571275,164.918005 808.361269,163.862 C807.151263,162.805995 806.546269,161.376009 806.546269,159.572 C806.546269,157.767991 807.151263,156.305006 808.361269,155.183 C809.571275,154.060994 811.12226,153.5 813.014269,153.5 C814.906278,153.5 816.457263,154.060994 817.667269,155.183 C818.877275,156.305006 819.482269,157.767991 819.482269,159.572 C819.482269,161.376009 818.877275,162.805995 817.667269,163.862 C816.457263,164.918005 814.906278,165.446 813.014269,165.446 Z M832.31741,170.264 L842.08541,170.264 L847.23341,185.708 C847.761413,187.380008 848.267408,189.051992 848.75141,190.724 C849.235412,192.396008 849.719408,194.089991 850.20341,195.806 L850.46741,195.806 C850.951412,194.089991 851.424408,192.396008 851.88641,190.724 C852.348412,189.051992 852.843407,187.380008 853.37141,185.708 L858.51941,170.264 L867.82541,170.264 L855.81341,203 L844.65941,203 L832.31741,170.264 Z M873.928551,186.632 C873.928551,183.947987 874.401546,181.550011 875.347551,179.438 C876.293556,177.325989 877.558543,175.533007 879.142551,174.059 C880.726559,172.584993 882.541541,171.452004 884.587551,170.66 C886.633561,169.867996 888.75654,169.472 890.956551,169.472 C893.464564,169.472 895.686541,169.867996 897.622551,170.66 C899.558561,171.452004 901.164545,172.551993 902.440551,173.96 C903.716557,175.368007 904.684548,177.02899 905.344551,178.943 C906.004554,180.85701 906.334551,182.935989 906.334551,185.18 C906.334551,186.060004 906.290551,186.895996 906.202551,187.688 C906.114551,188.480004 906.026551,189.073998 905.938551,189.47 L883.894551,189.47 C884.246553,191.934012 885.313542,193.704995 887.095551,194.783 C888.87756,195.861005 890.978539,196.4 893.398551,196.4 C894.894558,196.4 896.313544,196.213002 897.655551,195.839 C898.997558,195.464998 900.394544,194.904004 901.846551,194.156 L905.014551,199.964 C903.166542,201.152006 901.098562,202.086997 898.810551,202.769 C896.52254,203.451003 894.278562,203.792 892.078551,203.792 C889.526538,203.792 887.150562,203.407004 884.950551,202.637 C882.75054,201.866996 880.836559,200.745007 879.208551,199.271 C877.580543,197.796993 876.293556,196.004011 875.347551,193.892 C874.401546,191.779989 873.928551,189.360014 873.928551,186.632 Z M897.556551,183.068 C897.556551,181.219991 897.050556,179.724006 896.038551,178.58 C895.026546,177.435994 893.398562,176.864 891.154551,176.864 C889.394542,176.864 887.832558,177.369995 886.468551,178.382 C885.104544,179.394005 884.202553,180.955989 883.762551,183.068 L897.556551,183.068 Z M454.156,268.18 L453.166,264.22 C452.593997,262.063989 452.022003,259.776012 451.45,257.356 C450.877997,254.935988 450.306003,252.604011 449.734,250.36 L449.47,250.36 C448.941997,252.648011 448.392003,254.990988 447.82,257.389 C447.247997,259.787012 446.676003,262.063989 446.104,264.22 L445.114,268.18 L454.156,268.18 Z M456.136,275.77 L443.134,275.77 L440.494,286 L430.594,286 L443.992,242.968 L455.608,242.968 L469.006,286 L458.71,286 L456.136,275.77 Z M484.481141,288.574 L484.481141,298.144 L474.779141,298.144 L474.779141,253.264 L482.699141,253.264 L483.425141,256.564 L483.623141,256.564 C484.943148,255.375994 486.461132,254.397004 488.177141,253.627 C489.89315,252.856996 491.631132,252.472 493.391141,252.472 C495.415151,252.472 497.241133,252.867996 498.869141,253.66 C500.497149,254.452004 501.883135,255.573993 503.027141,257.026 C504.171147,258.478007 505.040138,260.22699 505.634141,262.273 C506.228144,264.31901 506.525141,266.595987 506.525141,269.104 C506.525141,271.920014 506.129145,274.416989 505.337141,276.595 C504.545137,278.773011 503.489148,280.620992 502.169141,282.139 C500.849134,283.657008 499.342149,284.811996 497.648141,285.604 C495.954133,286.396004 494.18315,286.792 492.335141,286.792 C489.343126,286.792 486.615153,285.604012 484.151141,283.228 L484.481141,288.574 Z M484.481141,276.694 C485.405146,277.486004 486.362136,278.046998 487.352141,278.377 C488.342146,278.707002 489.255137,278.872 490.091141,278.872 C491.93915,278.872 493.479135,278.113008 494.711141,276.595 C495.943147,275.076992 496.559141,272.624017 496.559141,269.236 C496.559141,263.339971 494.557161,260.392 490.553141,260.392 C488.485131,260.392 486.461151,261.40399 484.481141,263.428 L484.481141,276.694 Z M524.508282,288.574 L524.508282,298.144 L514.806282,298.144 L514.806282,253.264 L522.726282,253.264 L523.452282,256.564 L523.650282,256.564 C524.970289,255.375994 526.488273,254.397004 528.204282,253.627 C529.920291,252.856996 531.658273,252.472 533.418282,252.472 C535.442292,252.472 537.268274,252.867996 538.896282,253.66 C540.52429,254.452004 541.910276,255.573993 543.054282,257.026 C544.198288,258.478007 545.067279,260.22699 545.661282,262.273 C546.255285,264.31901 546.552282,266.595987 546.552282,269.104 C546.552282,271.920014 546.156286,274.416989 545.364282,276.595 C544.572278,278.773011 543.516289,280.620992 542.196282,282.139 C540.876275,283.657008 539.36929,284.811996 537.675282,285.604 C535.981274,286.396004 534.210291,286.792 532.362282,286.792 C529.370267,286.792 526.642294,285.604012 524.178282,283.228 L524.508282,288.574 Z M524.508282,276.694 C525.432287,277.486004 526.389277,278.046998 527.379282,278.377 C528.369287,278.707002 529.282278,278.872 530.118282,278.872 C531.966291,278.872 533.506276,278.113008 534.738282,276.595 C535.970288,275.076992 536.586282,272.624017 536.586282,269.236 C536.586282,263.339971 534.584302,260.392 530.580282,260.392 C528.512272,260.392 526.488292,261.40399 524.508282,263.428 L524.508282,276.694 Z M554.173423,239.734 L573.379423,239.734 L573.379423,273.592 C573.379423,274.604005 573.522422,275.450997 573.808423,276.133 C574.094424,276.815003 574.49042,277.364998 574.996423,277.783 C575.502426,278.201002 576.07442,278.497999 576.712423,278.674 C577.350426,278.850001 577.99942,278.938 578.659423,278.938 C579.407427,278.938 580.199419,278.861001 581.035423,278.707 C581.871427,278.552999 582.795418,278.278002 583.807423,277.882 L585.985423,285.01 C585.105419,285.274001 584.291427,285.515999 583.543423,285.736 C582.795419,285.956001 582.047427,286.142999 581.299423,286.297 C580.551419,286.451001 579.759427,286.572 578.923423,286.66 C578.087419,286.748 577.163428,286.792 576.151423,286.792 C572.015402,286.792 568.902433,285.571012 566.812423,283.129 C564.722413,280.686988 563.677423,277.376021 563.677423,273.196 L563.677423,247.39 L554.173423,247.39 L554.173423,239.734 Z M595.322564,253.264 L618.158564,253.264 L618.158564,286 L608.456564,286 L608.456564,260.854 L595.322564,260.854 L595.322564,253.264 Z M612.878564,248.446 C610.986555,248.446 609.43557,247.918005 608.225564,246.862 C607.015558,245.805995 606.410564,244.376009 606.410564,242.572 C606.410564,240.767991 607.015558,239.305006 608.225564,238.183 C609.43557,237.060994 610.986555,236.5 612.878564,236.5 C614.770573,236.5 616.321558,237.060994 617.531564,238.183 C618.74157,239.305006 619.346564,240.767991 619.346564,242.572 C619.346564,244.376009 618.74157,245.805995 617.531564,246.862 C616.321558,247.918005 614.770573,248.446 612.878564,248.446 Z M634.557705,269.632 C634.557705,266.903986 635.0747,264.473011 636.108705,262.339 C637.14271,260.204989 638.528696,258.412007 640.266705,256.96 C642.004714,255.507993 644.017694,254.397004 646.305705,253.627 C648.593716,252.856996 650.991692,252.472 653.499705,252.472 C656.095718,252.472 658.438695,252.889996 660.528705,253.726 C662.618715,254.562004 664.367698,255.617994 665.775705,256.894 L661.287705,262.9 C658.867693,261.183991 656.447717,260.326 654.027705,260.326 C651.211691,260.326 648.923714,261.161992 647.163705,262.834 C645.403696,264.506008 644.523705,266.771986 644.523705,269.632 C644.523705,272.492014 645.370697,274.757992 647.064705,276.43 C648.758713,278.102008 650.969691,278.938 653.697705,278.938 C655.413714,278.938 656.997698,278.630003 658.449705,278.014 C659.901712,277.397997 661.199699,276.672004 662.343705,275.836 L666.303705,281.974 C664.323695,283.646008 662.134717,284.866996 659.736705,285.637 C657.338693,286.407004 655.017716,286.792 652.773705,286.792 C650.177692,286.792 647.779716,286.407004 645.579705,285.637 C643.379694,284.866996 641.454713,283.756007 639.804705,282.304 C638.154697,280.851993 636.86771,279.059011 635.943705,276.925 C635.0197,274.790989 634.557705,272.360014 634.557705,269.632 Z M674.188846,276.892 C674.188846,275.043991 674.584842,273.427007 675.376846,272.041 C676.16885,270.654993 677.433837,269.478005 679.171846,268.51 C680.909855,267.541995 683.142832,266.761003 685.870846,266.167 C688.59886,265.572997 691.898827,265.166001 695.770846,264.946 C695.594845,263.449993 694.945852,262.284004 693.823846,261.448 C692.70184,260.611996 691.018857,260.194 688.774846,260.194 C687.190838,260.194 685.595854,260.468997 683.989846,261.019 C682.383838,261.569003 680.656855,262.305995 678.808846,263.23 L675.376846,256.894 C677.620857,255.617994 680.029833,254.562004 682.603846,253.726 C685.177859,252.889996 687.872832,252.472 690.688846,252.472 C695.264869,252.472 698.872833,253.681988 701.512846,256.102 C704.152859,258.522012 705.472846,262.239975 705.472846,267.256 L705.472846,286 L697.552846,286 L696.826846,282.304 L696.562846,282.304 C694.890838,283.580006 693.064856,284.646996 691.084846,285.505 C689.104836,286.363004 687.058857,286.792 684.946846,286.792 C683.274838,286.792 681.778853,286.539003 680.458846,286.033 C679.138839,285.526997 678.016851,284.823005 677.092846,283.921 C676.168841,283.018995 675.453849,281.974006 674.947846,280.786 C674.441843,279.597994 674.188846,278.300007 674.188846,276.892 Z M683.494846,276.166 C683.494846,277.222005 683.901842,278.002997 684.715846,278.509 C685.52985,279.015003 686.640839,279.268 688.048846,279.268 C689.500853,279.268 690.86484,278.971003 692.140846,278.377 C693.416852,277.782997 694.62684,277.046004 695.770846,276.166 L695.770846,270.754 C693.350834,270.886001 691.348854,271.105998 689.764846,271.414 C688.180838,271.722002 686.926851,272.106998 686.002846,272.569 C685.078841,273.031002 684.429848,273.569997 684.055846,274.186 C683.681844,274.802003 683.494846,275.461996 683.494846,276.166 Z M721.673987,260.854 L713.423987,260.854 L713.423987,253.66 L722.135987,253.264 L723.389987,244.552 L731.375987,244.552 L731.375987,253.264 L745.235987,253.264 L745.235987,260.854 L731.375987,260.854 L731.375987,272.338 C731.375987,274.846013 731.925981,276.616995 733.025987,277.651 C734.125992,278.685005 735.863975,279.202 738.239987,279.202 C739.515993,279.202 740.681982,279.092001 741.737987,278.872 C742.793992,278.651999 743.805982,278.366002 744.773987,278.014 L746.489987,285.01 C745.03798,285.450002 743.420996,285.856998 741.638987,286.231 C739.856978,286.605002 737.909998,286.792 735.797987,286.792 C733.201974,286.792 731.001996,286.440004 729.197987,285.736 C727.393978,285.031996 725.930993,284.053006 724.808987,282.799 C723.686981,281.544994 722.883989,280.038009 722.399987,278.278 C721.915985,276.517991 721.673987,274.560011 721.673987,272.404 L721.673987,260.854 Z M755.431128,253.264 L778.267128,253.264 L778.267128,286 L768.565128,286 L768.565128,260.854 L755.431128,260.854 L755.431128,253.264 Z M772.987128,248.446 C771.095119,248.446 769.544134,247.918005 768.334128,246.862 C767.124122,245.805995 766.519128,244.376009 766.519128,242.572 C766.519128,240.767991 767.124122,239.305006 768.334128,238.183 C769.544134,237.060994 771.095119,236.5 772.987128,236.5 C774.879137,236.5 776.430122,237.060994 777.640128,238.183 C778.850134,239.305006 779.455128,240.767991 779.455128,242.572 C779.455128,244.376009 778.850134,245.805995 777.640128,246.862 C776.430122,247.918005 774.879137,248.446 772.987128,248.446 Z M793.346269,269.632 C793.346269,266.903986 793.808264,264.473011 794.732269,262.339 C795.656274,260.204989 796.899261,258.412007 798.461269,256.96 C800.023277,255.507993 801.805259,254.397004 803.807269,253.627 C805.809279,252.856996 807.888258,252.472 810.044269,252.472 C812.20028,252.472 814.279259,252.856996 816.281269,253.627 C818.283279,254.397004 820.065261,255.507993 821.627269,256.96 C823.189277,258.412007 824.432264,260.204989 825.356269,262.339 C826.280274,264.473011 826.742269,266.903986 826.742269,269.632 C826.742269,272.360014 826.280274,274.790989 825.356269,276.925 C824.432264,279.059011 823.189277,280.851993 821.627269,282.304 C820.065261,283.756007 818.283279,284.866996 816.281269,285.637 C814.279259,286.407004 812.20028,286.792 810.044269,286.792 C807.888258,286.792 805.809279,286.407004 803.807269,285.637 C801.805259,284.866996 800.023277,283.756007 798.461269,282.304 C796.899261,280.851993 795.656274,279.059011 794.732269,276.925 C793.808264,274.790989 793.346269,272.360014 793.346269,269.632 Z M803.312269,269.632 C803.312269,272.492014 803.873263,274.757992 804.995269,276.43 C806.117275,278.102008 807.800258,278.938 810.044269,278.938 C812.28828,278.938 813.971263,278.102008 815.093269,276.43 C816.215275,274.757992 816.776269,272.492014 816.776269,269.632 C816.776269,266.771986 816.215275,264.506008 815.093269,262.834 C813.971263,261.161992 812.28828,260.326 810.044269,260.326 C807.800258,260.326 806.117275,261.161992 804.995269,262.834 C803.873263,264.506008 803.312269,266.771986 803.312269,269.632 Z M835.02341,253.264 L842.94341,253.264 L843.66941,257.62 L843.93341,257.62 C845.341417,256.211993 846.958401,255.002005 848.78441,253.99 C850.610419,252.977995 852.755398,252.472 855.21941,252.472 C858.915428,252.472 861.621401,253.659988 863.33741,256.036 C865.053419,258.412012 865.91141,261.667979 865.91141,265.804 L865.91141,286 L856.20941,286 L856.20941,267.058 C856.20941,264.857989 855.857414,263.252005 855.15341,262.24 C854.449406,261.227995 853.195419,260.722 851.39141,260.722 C850.071403,260.722 848.916415,261.007997 847.92641,261.58 C846.936405,262.152003 845.869416,263.009994 844.72541,264.154 L844.72541,286 L835.02341,286 L835.02341,253.264 Z M915.869692,242.968 L929.333692,242.968 C931.577703,242.968 933.656682,243.132998 935.570692,243.463 C937.484702,243.793002 939.145685,244.375996 940.553692,245.212 C941.961699,246.048004 943.072688,247.147993 943.886692,248.512 C944.700696,249.876007 945.107692,251.59199 945.107692,253.66 C945.107692,254.628005 944.964693,255.595995 944.678692,256.564 C944.392691,257.532005 943.941695,258.433996 943.325692,259.27 C942.709689,260.106004 941.939697,260.853997 941.015692,261.514 C940.091687,262.174003 938.991698,262.657998 937.715692,262.966 L937.715692,263.23 C940.795707,263.802003 943.127684,264.901992 944.711692,266.53 C946.2957,268.158008 947.087692,270.423985 947.087692,273.328 C947.087692,275.528011 946.669696,277.419992 945.833692,279.004 C944.997688,280.588008 943.831699,281.896995 942.335692,282.931 C940.839685,283.965005 939.090702,284.734997 937.088692,285.241 C935.086682,285.747003 932.919704,286 930.587692,286 L915.869692,286 L915.869692,242.968 Z M928.871692,260.326 C931.247704,260.326 932.963687,259.853005 934.019692,258.907 C935.075697,257.960995 935.603692,256.674008 935.603692,255.046 C935.603692,253.417992 935.064697,252.252004 933.986692,251.548 C932.908687,250.843996 931.225703,250.492 928.937692,250.492 L925.571692,250.492 L925.571692,260.326 L928.871692,260.326 Z M929.795692,278.476 C934.987718,278.476 937.583692,276.51802 937.583692,272.602 C937.583692,270.709991 936.956698,269.335004 935.702692,268.477 C934.448686,267.618996 932.479705,267.19 929.795692,267.19 L925.571692,267.19 L925.571692,278.476 L929.795692,278.476 Z M985.002833,286 L977.082833,286 L976.356833,281.314 L976.092833,281.314 C974.640826,282.986008 973.034842,284.316995 971.274833,285.307 C969.514824,286.297005 967.446845,286.792 965.070833,286.792 C961.330814,286.792 958.624841,285.604012 956.952833,283.228 C955.280825,280.851988 954.444833,277.596021 954.444833,273.46 L954.444833,253.264 L964.146833,253.264 L964.146833,272.206 C964.146833,274.406011 964.47683,276.011995 965.136833,277.024 C965.796836,278.036005 967.050824,278.542 968.898833,278.542 C970.130839,278.542 971.219828,278.278003 972.165833,277.75 C973.111838,277.221997 974.156827,276.232007 975.300833,274.78 L975.300833,253.264 L985.002833,253.264 L985.002833,286 Z M995.131974,253.264 L1003.05197,253.264 L1003.77797,257.62 L1004.04197,257.62 C1005.44998,256.211993 1007.06696,255.002005 1008.89297,253.99 C1010.71898,252.977995 1012.86396,252.472 1015.32797,252.472 C1019.02399,252.472 1021.72997,253.659988 1023.44597,256.036 C1025.16198,258.412012 1026.01997,261.667979 1026.01997,265.804 L1026.01997,286 L1016.31797,286 L1016.31797,267.058 C1016.31797,264.857989 1015.96598,263.252005 1015.26197,262.24 C1014.55797,261.227995 1013.30398,260.722 1011.49997,260.722 C1010.17997,260.722 1009.02498,261.007997 1008.03497,261.58 C1007.04497,262.152003 1005.97798,263.009994 1004.83397,264.154 L1004.83397,286 L995.131974,286 L995.131974,253.264 Z M1033.50912,269.632 C1033.50912,266.947987 1033.90511,264.550011 1034.69712,262.438 C1035.48912,260.325989 1036.53411,258.533007 1037.83212,257.059 C1039.13012,255.584993 1040.61511,254.452004 1042.28712,253.66 C1043.95912,252.867996 1045.69711,252.472 1047.50112,252.472 C1049.39312,252.472 1050.97711,252.790997 1052.25312,253.429 C1053.52912,254.067003 1054.73911,254.913995 1055.88312,255.97 L1055.55312,250.888 L1055.55312,239.734 L1065.25512,239.734 L1065.25512,286 L1057.33512,286 L1056.60912,282.634 L1056.41112,282.634 C1055.17911,283.822006 1053.77112,284.811996 1052.18712,285.604 C1050.60311,286.396004 1048.97512,286.792 1047.30312,286.792 C1045.2351,286.792 1043.35412,286.396004 1041.66012,285.604 C1039.96611,284.811996 1038.51412,283.679007 1037.30412,282.205 C1036.09411,280.730993 1035.15912,278.938011 1034.49912,276.826 C1033.83911,274.713989 1033.50912,272.316013 1033.50912,269.632 Z M1043.47512,269.5 C1043.47512,272.756016 1044.02511,275.131993 1045.12512,276.628 C1046.22512,278.124007 1047.7871,278.872 1049.81112,278.872 C1050.91112,278.872 1051.92311,278.641002 1052.84712,278.179 C1053.77112,277.716998 1054.67311,276.936005 1055.55312,275.836 L1055.55312,262.57 C1054.67311,261.777996 1053.78212,261.217002 1052.88012,260.887 C1051.97811,260.556998 1051.04312,260.392 1050.07512,260.392 C1048.27111,260.392 1046.72012,261.139993 1045.42212,262.636 C1044.12411,264.132007 1043.47512,266.419985 1043.47512,269.5 Z M1074.52626,239.734 L1093.73226,239.734 L1093.73226,273.592 C1093.73226,274.604005 1093.87525,275.450997 1094.16126,276.133 C1094.44726,276.815003 1094.84325,277.364998 1095.34926,277.783 C1095.85526,278.201002 1096.42725,278.497999 1097.06526,278.674 C1097.70326,278.850001 1098.35225,278.938 1099.01226,278.938 C1099.76026,278.938 1100.55225,278.861001 1101.38826,278.707 C1102.22426,278.552999 1103.14825,278.278002 1104.16026,277.882 L1106.33826,285.01 C1105.45825,285.274001 1104.64426,285.515999 1103.89626,285.736 C1103.14825,285.956001 1102.40026,286.142999 1101.65226,286.297 C1100.90425,286.451001 1100.11226,286.572 1099.27626,286.66 C1098.44025,286.748 1097.51626,286.792 1096.50426,286.792 C1092.36824,286.792 1089.25527,285.571012 1087.16526,283.129 C1085.07525,280.686988 1084.03026,277.376021 1084.03026,273.196 L1084.03026,247.39 L1074.52626,247.39 L1074.52626,239.734 Z M1114.0914,269.632 C1114.0914,266.947987 1114.56439,264.550011 1115.5104,262.438 C1116.4564,260.325989 1117.72139,258.533007 1119.3054,257.059 C1120.8894,255.584993 1122.70439,254.452004 1124.7504,253.66 C1126.79641,252.867996 1128.91939,252.472 1131.1194,252.472 C1133.62741,252.472 1135.84939,252.867996 1137.7854,253.66 C1139.72141,254.452004 1141.32739,255.551993 1142.6034,256.96 C1143.8794,258.368007 1144.84739,260.02899 1145.5074,261.943 C1146.1674,263.85701 1146.4974,265.935989 1146.4974,268.18 C1146.4974,269.060004 1146.4534,269.895996 1146.3654,270.688 C1146.2774,271.480004 1146.1894,272.073998 1146.1014,272.47 L1124.0574,272.47 C1124.4094,274.934012 1125.47639,276.704995 1127.2584,277.783 C1129.04041,278.861005 1131.14138,279.4 1133.5614,279.4 C1135.0574,279.4 1136.47639,279.213002 1137.8184,278.839 C1139.1604,278.464998 1140.55739,277.904004 1142.0094,277.156 L1145.1774,282.964 C1143.32939,284.152006 1141.26141,285.086997 1138.9734,285.769 C1136.68539,286.451003 1134.44141,286.792 1132.2414,286.792 C1129.68938,286.792 1127.31341,286.407004 1125.1134,285.637 C1122.91339,284.866996 1120.99941,283.745007 1119.3714,282.271 C1117.74339,280.796993 1116.4564,279.004011 1115.5104,276.892 C1114.56439,274.779989 1114.0914,272.360014 1114.0914,269.632 Z M1137.7194,266.068 C1137.7194,264.219991 1137.2134,262.724006 1136.2014,261.58 C1135.18939,260.435994 1133.56141,259.864 1131.3174,259.864 C1129.55739,259.864 1127.9954,260.369995 1126.6314,261.382 C1125.26739,262.394005 1124.3654,263.955989 1123.9254,266.068 L1137.7194,266.068 Z" id="Cloud-Native-Applica" fill="#3731AA"></path>
    </g>
</svg>